<?xml version="1.0" encoding="UTF-8" standalone="no"?>
<svg
   xmlns:dc="http://purl.org/dc/elements/1.1/"
   xmlns:cc="http://creativecommons.org/ns#"
   xmlns:rdf="http://www.w3.org/1999/02/22-rdf-syntax-ns#"
   xmlns:svg="http://www.w3.org/2000/svg"
   xmlns="http://www.w3.org/2000/svg"
   xmlns:sodipodi="http://sodipodi.sourceforge.net/DTD/sodipodi-0.dtd"
   xmlns:inkscape="http://www.inkscape.org/namespaces/inkscape"
   id="FICHA_PROYECTO"
   data-name="FICHA PROYECTO"
   viewBox="0 0 20 17.43"
   version="1.1"
   sodipodi:docname="folder.svg"
   inkscape:version="0.92.4 (5da689c313, 2019-01-14)">
  <metadata
     id="metadata14">
    <rdf:RDF>
      <cc:Work
         rdf:about="">
        <dc:format>image/svg+xml</dc:format>
        <dc:type
           rdf:resource="http://purl.org/dc/dcmitype/StillImage" />
        <dc:title></dc:title>
      </cc:Work>
    </rdf:RDF>
  </metadata>
  <sodipodi:namedview
     pagecolor="#ffffff"
     bordercolor="#666666"
     borderopacity="1"
     objecttolerance="10"
     gridtolerance="10"
     guidetolerance="10"
     inkscape:pageopacity="0"
     inkscape:pageshadow="2"
     inkscape:window-width="931"
     inkscape:window-height="480"
     id="namedview12"
     showgrid="false"
     inkscape:zoom="13.539874"
     inkscape:cx="10"
     inkscape:cy="8.7150002"
     inkscape:window-x="0"
     inkscape:window-y="0"
     inkscape:window-maximized="0"
     inkscape:current-layer="FICHA_PROYECTO" />
  <defs
     id="defs4">
    <style
       id="style2">.cls-1{fill:none;stroke:#35425b;stroke-linejoin:round;}</style>
  </defs>
  <g
     id="FOLDER">
    <path
       class="cls-1"
       d="M88.27,60.21h-2a.77.77,0,0,1-.78-.77c0-2.77,0-12.1,0-14.87a.78.78,0,0,1,.78-.78h5.34a.78.78,0,0,1,.65.35l1.18,1.79a.81.81,0,0,0,.65.35h5.43a.77.77,0,0,1,.78.77v3.44"
       transform="translate(-85 -43.29)"
       id="path6" />
    <path
       class="cls-1"
       d="M90.93,50.49h12.78a.78.78,0,0,1,.75,1l-2.66,8.15a.8.8,0,0,1-.75.54H88.27a.78.78,0,0,1-.75-1L90.18,51A.8.8,0,0,1,90.93,50.49Z"
       transform="translate(-85 -43.29)"
       id="path8" />
  </g>
</svg>
