<svg xmlns="http://www.w3.org/2000/svg" width="322.91" height="334.436" viewBox="0 0 322.91 334.436">
  <g id="Grupo_2" data-name="Grupo 2" transform="translate(-3799.393 -478)" stroke="#35425B" fill="#35425B">
    <path id="Trazado_113" data-name="Trazado 113" d="M479.53,383.43A161.558,161.558,0,0,0,510.835,308H476.788A128.089,128.089,0,0,1,455.452,359.4Z" transform="translate(3611.469 366.005)"/>
    <path id="Trazado_114" data-name="Trazado 114" d="M372.4,412.38v33.992a161.543,161.543,0,0,0,75.434-31.3l-24.023-24.023A128.052,128.052,0,0,1,372.4,412.38Z" transform="translate(3611.469 366.005)"/>
    <path id="Trazado_115" data-name="Trazado 115" d="M372.4,158.82a128.049,128.049,0,0,1,51.41,21.336l24.023-24.023A161.533,161.533,0,0,0,372.4,124.774Z" transform="translate(3611.469 366.005)"/>
    <path id="Trazado_116" data-name="Trazado 116" d="M510.83,263.2a161.529,161.529,0,0,0-31.3-75.43L455.5,211.793A128.1,128.1,0,0,1,476.783,263.2Z" transform="translate(3611.469 366.005)"/>
    <path id="Trazado_117" data-name="Trazado 117" d="M327.6,412.38a128.8,128.8,0,0,1-44.8-236.657V235.2h33.6l0-106.4A16.8,16.8,0,0,0,299.6,112H193.2v33.6h74.871A162.4,162.4,0,0,0,327.6,446.431Z" transform="translate(3611.469 366.005)"/>
  </g>
</svg>
